<svg data-v-423bf9ae="" xmlns="http://www.w3.org/2000/svg" viewBox="0 0 283.3715930973844 163" class="iconAbove"><!----><!----><!----><g data-v-423bf9ae="" id="7dd13682-d130-4269-93d5-a31b5d8e9962" fill="white" transform="matrix(5.295675234247834,0,0,5.295675234247834,-3.283315501274444,89.0723754352349)"><path d="M9.19 5.93L7.15 6.19Q7.17 5.61 7.05 5.25Q6.94 4.89 6.64 4.72Q6.35 4.55 5.83 4.55L5.83 4.55Q4.65 4.55 4.03 5.60Q3.42 6.64 3.10 8.43L3.10 8.43Q2.92 9.48 2.92 10.16L2.92 10.16Q2.92 10.99 3.21 11.44Q3.49 11.89 4.16 11.89L4.16 11.89Q4.88 11.89 5.40 11.41Q5.92 10.93 6.17 10.13L6.17 10.13Q6.30 9.81 6.39 9.35L6.39 9.35L4.89 9.35L5.19 7.64L8.93 7.64L7.85 13.78L6.00 13.78L6.17 12.20Q5.96 12.80 5.56 13.19Q5.17 13.58 4.68 13.76Q4.18 13.94 3.68 13.94L3.68 13.94Q2.13 13.94 1.38 12.89Q0.62 11.85 0.62 10.04L0.62 10.04Q0.62 9.11 0.81 8.07L0.81 8.07Q1.25 5.56 2.46 4.09Q3.67 2.63 5.79 2.63L5.79 2.63Q7.01 2.63 7.78 3.07Q8.55 3.50 8.89 4.24Q9.23 4.98 9.19 5.93L9.19 5.93ZM12.49 13.96Q11.09 13.96 10.33 13.19Q9.57 12.43 9.57 10.90L9.57 10.90Q9.57 10.34 9.70 9.57L9.70 9.57Q10.07 7.48 11.10 6.48Q12.13 5.48 13.71 5.48L13.71 5.48Q15.10 5.48 15.85 6.23Q16.60 6.98 16.60 8.50L16.60 8.50Q16.60 9.11 16.47 9.90L16.47 9.90Q16.11 11.96 15.09 12.96Q14.07 13.96 12.49 13.96L12.49 13.96ZM12.50 12.22Q12.93 12.22 13.26 11.98Q13.60 11.74 13.86 11.15Q14.13 10.56 14.31 9.56L14.31 9.56Q14.44 8.78 14.44 8.26L14.44 8.26Q14.44 7.66 14.25 7.43Q14.05 7.20 13.65 7.20L13.65 7.20Q13.24 7.20 12.92 7.43Q12.59 7.67 12.33 8.26Q12.07 8.85 11.89 9.88L11.89 9.88Q11.75 10.64 11.75 11.15L11.75 11.15Q11.75 11.75 11.94 11.98Q12.13 12.22 12.50 12.22L12.50 12.22ZM20.17 13.93Q19.34 13.93 18.63 13.64Q17.92 13.36 17.47 12.67Q17.01 11.99 17.01 10.87L17.01 10.87Q17.01 10.68 17.02 10.58L17.02 10.58L19.04 10.06Q19.02 10.68 19.22 11.10Q19.41 11.53 19.74 11.73Q20.06 11.94 20.43 11.94L20.43 11.94Q20.95 11.94 21.27 11.60Q21.59 11.27 21.65 10.66L21.65 10.66Q21.66 10.61 21.66 10.51L21.66 10.51Q21.66 10.08 21.46 9.77Q21.27 9.45 20.99 9.24Q20.72 9.02 20.21 8.70L20.21 8.70Q19.54 8.29 19.11 7.92Q18.69 7.54 18.46 7.06Q18.22 6.58 18.22 5.95L18.22 5.95Q18.22 5.78 18.23 5.68L18.23 5.68Q18.27 4.75 18.71 4.07Q19.14 3.39 19.91 3.03Q20.68 2.67 21.71 2.67L21.71 2.67Q22.47 2.67 23.13 2.91Q23.78 3.15 24.21 3.76Q24.64 4.36 24.66 5.39L24.66 5.39L22.81 5.90Q22.80 5.43 22.63 5.11Q22.46 4.79 22.17 4.62Q21.88 4.46 21.51 4.46L21.51 4.46Q21.03 4.46 20.73 4.77Q20.43 5.09 20.43 5.58L20.43 5.58Q20.43 5.90 20.59 6.15Q20.75 6.39 21.01 6.58Q21.27 6.76 21.74 7.05L21.74 7.05L22.27 7.38Q22.80 7.71 23.16 8.04Q23.52 8.36 23.76 8.86Q23.99 9.36 23.99 10.06L23.99 10.06Q23.99 10.17 23.98 10.37L23.98 10.37Q23.93 11.40 23.45 12.21Q22.96 13.02 22.11 13.47Q21.27 13.93 20.17 13.93L20.17 13.93ZM24.64 13.78L26.57 2.80L28.84 2.80L28.10 6.84L28.21 6.84Q29.00 5.48 30.38 5.48L30.38 5.48Q30.98 5.48 31.43 5.75Q31.88 6.02 32.12 6.51Q32.36 7.01 32.36 7.68L32.36 7.68Q32.36 8.00 32.30 8.37L32.30 8.37L31.34 13.78L29.02 13.78L29.94 8.56Q30.00 8.24 30.00 8.05L30.00 8.05Q30.00 7.68 29.84 7.52Q29.68 7.37 29.36 7.37L29.36 7.37Q28.79 7.37 28.37 7.81Q27.95 8.25 27.82 8.98L27.82 8.98L26.97 13.78L24.64 13.78ZM35.88 13.96Q34.49 13.96 33.73 13.19Q32.96 12.43 32.96 10.90L32.96 10.90Q32.96 10.34 33.09 9.57L33.09 9.57Q33.46 7.48 34.49 6.48Q35.53 5.48 37.10 5.48L37.10 5.48Q38.49 5.48 39.25 6.23Q40.00 6.98 40.00 8.50L40.00 8.50Q40.00 9.11 39.86 9.90L39.86 9.90Q39.50 11.96 38.48 12.96Q37.46 13.96 35.88 13.96L35.88 13.96ZM35.89 12.22Q36.32 12.22 36.65 11.98Q36.99 11.74 37.26 11.15Q37.52 10.56 37.70 9.56L37.70 9.56Q37.84 8.78 37.84 8.26L37.84 8.26Q37.84 7.66 37.64 7.43Q37.44 7.20 37.04 7.20L37.04 7.20Q36.63 7.20 36.31 7.43Q35.98 7.67 35.72 8.26Q35.46 8.85 35.28 9.88L35.28 9.88Q35.14 10.64 35.14 11.15L35.14 11.15Q35.14 11.75 35.33 11.98Q35.52 12.22 35.89 12.22L35.89 12.22ZM44.66 5.48Q46.09 5.48 46.74 6.22Q47.39 6.97 47.39 8.25L47.39 8.25Q47.39 8.79 47.29 9.37L47.29 9.37Q47.22 9.81 47.07 10.29L47.07 10.29L42.88 10.29Q42.80 10.66 42.80 10.93L42.80 10.93Q42.80 11.50 43.07 11.81Q43.33 12.13 43.80 12.13L43.80 12.13Q44.25 12.13 44.61 11.90Q44.98 11.68 45.24 11.25L45.24 11.25L46.82 11.92Q46.24 13.06 45.45 13.51Q44.67 13.95 43.65 13.95L43.65 13.95Q42.74 13.95 42.06 13.58Q41.38 13.21 41.01 12.48Q40.63 11.76 40.63 10.73L40.63 10.73Q40.63 10.19 40.74 9.59L40.74 9.59Q41.09 7.65 42.06 6.56Q43.04 5.48 44.66 5.48L44.66 5.48ZM44.73 7.21Q44.08 7.21 43.71 7.66Q43.33 8.11 43.17 8.82L43.17 8.82L45.46 8.82Q45.53 8.33 45.53 8.09L45.53 8.09Q45.53 7.66 45.35 7.43Q45.17 7.21 44.73 7.21L44.73 7.21ZM50.46 13.95Q49.62 13.95 48.96 13.65Q48.29 13.35 47.88 12.77Q47.46 12.19 47.37 11.36L47.37 11.36L49.10 10.86Q49.14 11.29 49.34 11.60Q49.53 11.92 49.82 12.08Q50.10 12.25 50.39 12.25L50.39 12.25Q50.80 12.25 51.07 11.97Q51.34 11.70 51.34 11.27L51.34 11.27Q51.34 11.02 51.21 10.84Q51.08 10.66 50.87 10.53Q50.66 10.40 50.29 10.21L50.29 10.21L50.05 10.08Q49.52 9.81 49.19 9.58Q48.87 9.35 48.65 8.99Q48.44 8.62 48.44 8.09L48.44 8.09Q48.44 7.27 48.85 6.68Q49.27 6.08 49.97 5.78Q50.67 5.47 51.50 5.47L51.50 5.47Q52.19 5.47 52.77 5.69Q53.35 5.91 53.72 6.41Q54.10 6.90 54.13 7.70L54.13 7.70L52.52 7.99Q52.49 7.49 52.21 7.24Q51.93 6.99 51.54 6.99L51.54 6.99Q51.15 6.99 50.86 7.21Q50.57 7.42 50.52 7.82L50.52 7.82Q50.50 8.07 50.63 8.26Q50.75 8.44 50.96 8.58Q51.17 8.71 51.58 8.92L51.58 8.92L51.86 9.06Q52.39 9.32 52.75 9.58Q53.11 9.84 53.33 10.24Q53.56 10.64 53.56 11.20L53.56 11.20Q53.56 11.33 53.55 11.40L53.55 11.40Q53.52 12.15 53.10 12.74Q52.69 13.32 52.00 13.63Q51.31 13.95 50.46 13.95L50.46 13.95Z"></path></g><!----><g data-v-423bf9ae="" id="4e8d3040-0a09-4d3b-b698-de433cf9c388" transform="matrix(1.8197566999755803,0,0,1.8197566999755803,51.04768044872644,-37.06111752152165)" stroke="none" fill="white"><path d="M71.195 52.306a147.89 147.89 0 01-6.307-1.396L54.771 62.654c2.594-.043 5.166-.121 7.705-.229l8.719-10.119zm-20.088-5.714a63.41 63.41 0 01-5.406-2.442L30.684 61.576c2.289.266 4.604.485 6.945.658l13.478-15.642zm9.707 3.248a105.761 105.761 0 01-5.922-1.844L42.379 62.518c2.432.111 4.887.169 7.362.173L60.814 49.84zm37.875 10.098l.109.255c.021.045.039.089.057.134 1.043 2.632-2.801 3.865-4.652 4.735-9.861 4.64-30.873 5.229-41.375 5.207-2.983-.006-6.354-.128-9.262-.854-.154-.039-.772-.163-.767-.311-.032-1.098-.713-2.304-1.838-2.58-2.278-.559-4.91.878-6.846 1.946-2.193 1.208-6.259 1.52-8.758 1.52-6.913 0-13.896-.82-20.714-1.925-1.045-.169-3.218-.608-3.96-1.441-.791-.886-.354-5.193.274-6.254.543-.913 1.243-1.851 1.652-2.838-.349-1.695-.725-3.438-.906-5.16-.253-2.395 5.284-15.196 6.302-17.825-2.005-1.559.088-2.015.557-2.206 2.146-.872 5.397-1.542 7.277.209 2.99 2.787 4.427 6.269 9.286 6.168 1.66-.035 6.124-.311 7.688-1.048-1.036-.932-2.632-2.668-1.613-4.117.784-1.114 10.769-13.466 13.659-12.707 2.34.615 7.052 12.259 7.907 13.173.328.075 16.486 14.446 24.688 14.967.346.021 4.4.155 5.021.173 3.844.117 8.311.433 12.02 1.441 1.111.301 2.408.609 3.42 1.179 3.071 1.727 2.194 5.641.774 8.159z"></path></g><!----></svg>